<svg xmlns="http://www.w3.org/2000/svg" xmlns:xlink="http://www.w3.org/1999/xlink" viewBox="0 0 1920 1028.3"><defs><linearGradient id="linear-gradient" x1="960" y1="1028.33" x2="960" gradientUnits="userSpaceOnUse"><stop offset="0" stop-color="#e0e0e0"/><stop offset="0.09" stop-color="#e0e0e0" stop-opacity="0.88"/><stop offset="0.34" stop-color="#e0e0e0" stop-opacity="0.57"/><stop offset="0.56" stop-color="#e0e0e0" stop-opacity="0.33"/><stop offset="0.75" stop-color="#e0e0e0" stop-opacity="0.15"/><stop offset="0.9" stop-color="#e0e0e0" stop-opacity="0.04"/><stop offset="0.99" stop-color="#e0e0e0" stop-opacity="0"/></linearGradient></defs><g id="Layer_2" data-name="Layer 2"><g id="Layer_1-2" data-name="Layer 1"><rect width="1920" height="1028.33" fill="#e0e0e0"/><path d="M57.3,1028h2.1V979h104v49h2.1V979h104v49h2.1V979H375.5v49h2.1V979h104v49h2.1V979h104v49h2.1V979h104v49h2.1V979H799.8v49h2.1V979h104v49H908V979h104v49h2.1V979h104v49h2.1V979h103.9v49h2.1V979h104v49h2.1V979h104v49h2.1V979h104v49h2.1V979h103.9v49h2.1V979h104v49h2.1V979h104v49h2.1V979H1920v-2.1h-57.3v-101H1920v-2.1h-57.3V772.9H1920v-2.1h-57.3v-101H1920v-2.1h-57.3v-101H1920v-2.1h-57.3V463.7H1920v-2.1h-57.3v-101H1920v-2.1h-57.3V257.6H1920v-2.1h-57.3v-101H1920v-2.1h-57.3V51.4H1920V49.3h-57.3V.3h-2.1v49h-104V.3h-2.1v49h-104V.3h-2.1v49H1544.5V.3h-2.1v49h-104V.3h-2.1v49h-104V.3h-2.1v49h-104V.3h-2.1v49H1120.2V.3h-2.1v49h-104V.3H1012v49H908V.3h-2.1v49h-104V.3h-2.1v49H695.9V.3h-2.1v49h-104V.3h-2.1v49h-104V.3h-2.1v49h-104V.3h-2.1v49H271.6V.3h-2.1v49h-104V.3h-2.1v49H59.4V.3H57.3v49H0v2.1H57.3v101H0v2.1H57.3v101H0v2.1H57.3V358.5H0v2.1H57.3v101H0v2.1H57.3V564.6H0v2.1H57.3v101H0v2.1H57.3v101H0v2.1H57.3V873.8H0v2.1H57.3v101H0V979H57.3ZM1756.6,51.4h104v101h-104Zm0,103.1h104v101h-104Zm0,103.1h104V358.5h-104Zm0,103h104v101h-104Zm0,103.1h104V564.6h-104Zm0,103h104v101h-104Zm0,103.1h104v101h-104Zm0,103.1h104V873.8h-104Zm0,103h104v101h-104ZM1650.5,51.4h104v101h-104Zm0,103.1h104v101h-104Zm0,103.1h104V358.5h-104Zm0,103h104v101h-104Zm0,103.1h104V564.6h-104Zm0,103h104v101h-104Zm0,103.1h104v101h-104Zm0,103.1h104V873.8h-104Zm0,103h104v101h-104Zm-106-824.5h103.9v101H1544.5Zm0,103.1h103.9v101H1544.5Zm0,103.1h103.9V358.5H1544.5Zm0,103h103.9v101H1544.5Zm0,103.1h103.9V564.6H1544.5Zm0,103h103.9v101H1544.5Zm0,103.1h103.9v101H1544.5Zm0,103.1h103.9V873.8H1544.5Zm0,103h103.9v101H1544.5ZM1438.4,51.4h104v101h-104Zm0,103.1h104v101h-104Zm0,103.1h104V358.5h-104Zm0,103h104v101h-104Zm0,103.1h104V564.6h-104Zm0,103h104v101h-104Zm0,103.1h104v101h-104Zm0,103.1h104V873.8h-104Zm0,103h104v101h-104ZM1332.3,51.4h104v101h-104Zm0,103.1h104v101h-104Zm0,103.1h104V358.5h-104Zm0,103h104v101h-104Zm0,103.1h104V564.6h-104Zm0,103h104v101h-104Zm0,103.1h104v101h-104Zm0,103.1h104V873.8h-104Zm0,103h104v101h-104ZM1226.2,51.4h104v101h-104Zm0,103.1h104v101h-104Zm0,103.1h104V358.5h-104Zm0,103h104v101h-104Zm0,103.1h104V564.6h-104Zm0,103h104v101h-104Zm0,103.1h104v101h-104Zm0,103.1h104V873.8h-104Zm0,103h104v101h-104Zm-106-824.5h103.9v101H1120.2Zm0,103.1h103.9v101H1120.2Zm0,103.1h103.9V358.5H1120.2Zm0,103h103.9v101H1120.2Zm0,103.1h103.9V564.6H1120.2Zm0,103h103.9v101H1120.2Zm0,103.1h103.9v101H1120.2Zm0,103.1h103.9V873.8H1120.2Zm0,103h103.9v101H1120.2ZM1014.1,51.4h104v101h-104Zm0,103.1h104v101h-104Zm0,103.1h104V358.5h-104Zm0,103h104v101h-104Zm0,103.1h104V564.6h-104Zm0,103h104v101h-104Zm0,103.1h104v101h-104Zm0,103.1h104V873.8h-104Zm0,103h104v101h-104ZM908,51.4h104v101H908Zm0,103.1h104v101H908Zm0,103.1h104V358.5H908Zm0,103h104v101H908Zm0,103.1h104V564.6H908Zm0,103h104v101H908Zm0,103.1h104v101H908Zm0,103.1h104V873.8H908Zm0,103h104v101H908ZM801.9,51.4h104v101h-104Zm0,103.1h104v101h-104Zm0,103.1h104V358.5h-104Zm0,103h104v101h-104Zm0,103.1h104V564.6h-104Zm0,103h104v101h-104Zm0,103.1h104v101h-104Zm0,103.1h104V873.8h-104Zm0,103h104v101h-104ZM695.9,51.4H799.8v101H695.9Zm0,103.1H799.8v101H695.9Zm0,103.1H799.8V358.5H695.9Zm0,103H799.8v101H695.9Zm0,103.1H799.8V564.6H695.9Zm0,103H799.8v101H695.9Zm0,103.1H799.8v101H695.9Zm0,103.1H799.8V873.8H695.9Zm0,103H799.8v101H695.9ZM589.8,51.4h104v101h-104Zm0,103.1h104v101h-104Zm0,103.1h104V358.5h-104Zm0,103h104v101h-104Zm0,103.1h104V564.6h-104Zm0,103h104v101h-104Zm0,103.1h104v101h-104Zm0,103.1h104V873.8h-104Zm0,103h104v101h-104ZM483.7,51.4h104v101h-104Zm0,103.1h104v101h-104Zm0,103.1h104V358.5h-104Zm0,103h104v101h-104Zm0,103.1h104V564.6h-104Zm0,103h104v101h-104Zm0,103.1h104v101h-104Zm0,103.1h104V873.8h-104Zm0,103h104v101h-104ZM377.6,51.4h104v101h-104Zm0,103.1h104v101h-104Zm0,103.1h104V358.5h-104Zm0,103h104v101h-104Zm0,103.1h104V564.6h-104Zm0,103h104v101h-104Zm0,103.1h104v101h-104Zm0,103.1h104V873.8h-104Zm0,103h104v101h-104ZM271.6,51.4H375.5v101H271.6Zm0,103.1H375.5v101H271.6Zm0,103.1H375.5V358.5H271.6Zm0,103H375.5v101H271.6Zm0,103.1H375.5V564.6H271.6Zm0,103H375.5v101H271.6Zm0,103.1H375.5v101H271.6Zm0,103.1H375.5V873.8H271.6Zm0,103H375.5v101H271.6ZM165.5,51.4h104v101h-104Zm0,103.1h104v101h-104Zm0,103.1h104V358.5h-104Zm0,103h104v101h-104Zm0,103.1h104V564.6h-104Zm0,103h104v101h-104Zm0,103.1h104v101h-104Zm0,103.1h104V873.8h-104Zm0,103h104v101h-104ZM59.4,51.4h104v101H59.4Zm0,103.1h104v101H59.4Zm0,103.1h104V358.5H59.4Zm0,103h104v101H59.4Zm0,103.1h104V564.6H59.4Zm0,103h104v101H59.4Zm0,103.1h104v101H59.4Zm0,103.1h104V873.8H59.4Zm0,103h104v101H59.4Z" fill="#9e9e9e" opacity="0.2"/><rect width="1920" height="1028.33" fill="url(#linear-gradient)"/></g></g></svg>