<svg xmlns="http://www.w3.org/2000/svg" xmlns:xlink="http://www.w3.org/1999/xlink" viewBox="0 0 1920 1028.3"><defs><linearGradient id="linear-gradient" x1="960" y1="1028.33" x2="960" gradientUnits="userSpaceOnUse"><stop offset="0" stop-color="#212225"/><stop offset="0.08" stop-color="#212225" stop-opacity="0.9"/><stop offset="0.65" stop-color="#212225" stop-opacity="0.24"/><stop offset="1" stop-color="#212225" stop-opacity="0"/></linearGradient></defs><g id="Layer_2" data-name="Layer 2"><g id="Layer_1-2" data-name="Layer 1"><rect width="1920" height="1028.33" fill="#212225"/><g opacity="0.05"><path d="M960.2,750.4v.6A3618.9,3618.9,0,0,0,0,750.9v1.8l.2,1.7a3610.2,3610.2,0,0,1,959.6,0V754A3624.2,3624.2,0,0,0,1440,786a3621.2,3621.2,0,0,0,480-32v-1.8l-.2-1.8A3614.4,3614.4,0,0,1,960.2,750.4Z" fill="#2962ff"/><path d="M960.2,819.1v.6A3614.7,3614.7,0,0,0,0,819.7v1.8l.2,1.7a3618.6,3618.6,0,0,1,959.6,0v-.4a3607.4,3607.4,0,0,0,480.2,32,3621.1,3621.1,0,0,0,480-31.9V821l-.2-1.9A3610.2,3610.2,0,0,1,960.2,819.1Z" fill="#2962ff"/><path d="M960.2,681.7v.5A3623.1,3623.1,0,0,0,0,682.2v1.7l.2,1.6a3618.6,3618.6,0,0,1,959.6,0v-.4a3624.2,3624.2,0,0,0,480.2,32,3621.2,3621.2,0,0,0,480-32v-1.7l-.2-1.7A3618.6,3618.6,0,0,1,960.2,681.7Z" fill="#2962ff"/><path d="M960.2,613v.5A3622.4,3622.4,0,0,0,0,613.5v1.6l.2,1.6a3610.2,3610.2,0,0,1,959.6,0v-.5a3607.4,3607.4,0,0,0,480.2,32,3621.1,3621.1,0,0,0,480-31.9v-1.7l-.2-1.6A3618.6,3618.6,0,0,1,960.2,613Z" fill="#2962ff"/><path d="M1893.1,0h-16.3a3616.5,3616.5,0,0,1-873.6,0H986.9A3615.9,3615.9,0,0,0,1440,28.5,3615.9,3615.9,0,0,0,1893.1,0Z" fill="#2962ff"/><path d="M0,1025.8v2.5H11.5a3619.4,3619.4,0,0,1,937,0h11.4l.4-2.4A3619.7,3619.7,0,0,0,0,1025.8Z" fill="#2962ff"/><path d="M960.3,956.6v.5A3623.1,3623.1,0,0,0,0,957.1V959l.3,2a3608.7,3608.7,0,0,1,959.4,0v-.4a3624.2,3624.2,0,0,0,480.2,32,3621.2,3621.2,0,0,0,480-32v-2l-.3-2A3617.1,3617.1,0,0,1,960.3,956.6Z" fill="#2962ff"/><path d="M960.3,887.9v.5A3623.1,3623.1,0,0,0,0,888.4v1.9l.2,1.8a3618.6,3618.6,0,0,1,959.6,0v-.4a3624.2,3624.2,0,0,0,480.2,32,3621.2,3621.2,0,0,0,480-32v-1.9l-.3-1.9A3617.1,3617.1,0,0,1,960.3,887.9Z" fill="#2962ff"/><path d="M960.2,269.4v.5A3622.4,3622.4,0,0,0,0,269.9v1.2l.2,1.2a3618.6,3618.6,0,0,1,959.6,0v-.4a3605.9,3605.9,0,0,0,480.1,32A3621.1,3621.1,0,0,0,1920,272v-1.3l-.2-1.3A3618.6,3618.6,0,0,1,960.2,269.4Z" fill="#2962ff"/><path d="M960.2,200.7v.5A3622.4,3622.4,0,0,0,0,201.2v1.1l.2,1.2a3610.2,3610.2,0,0,1,959.6,0v-.4a3622.7,3622.7,0,0,0,480.1,32,3621.2,3621.2,0,0,0,480-32v-1.2l-.2-1.2A3618.6,3618.6,0,0,1,960.2,200.7Z" fill="#2962ff"/><path d="M960.2,544.3v.5A3622.4,3622.4,0,0,0,0,544.8v1.5l.2,1.5a3618.6,3618.6,0,0,1,959.6,0v-.4a3622.7,3622.7,0,0,0,480.1,32,3621.2,3621.2,0,0,0,480-32v-1.6l-.2-1.5A3618.6,3618.6,0,0,1,960.2,544.3Z" fill="#2962ff"/><path d="M960.1,63.2v.6A3614,3614,0,0,0,0,63.8v2a3611.7,3611.7,0,0,1,959.8,0v-.4A3622.6,3622.6,0,0,0,1440,97.3a3621.1,3621.1,0,0,0,480-31.9V63.2A3611.7,3611.7,0,0,1,960.1,63.2Z" fill="#2962ff"/><path d="M960.2,131.9v.6A3614,3614,0,0,0,0,132.5v2.1a3620.1,3620.1,0,0,1,959.8,0v-.4a3622.7,3622.7,0,0,0,480.1,32,3621.2,3621.2,0,0,0,480-32v-1.1l-.2-1.2A3610.2,3610.2,0,0,1,960.2,131.9Z" fill="#2962ff"/><path d="M960.2,475.5v.6A3614,3614,0,0,0,0,476.1v1.4l.2,1.4a3618.6,3618.6,0,0,1,959.6,0v-.4a3605.9,3605.9,0,0,0,480.1,32,3604.4,3604.4,0,0,0,480-32V477l-.2-1.5A3610.2,3610.2,0,0,1,960.2,475.5Z" fill="#2962ff"/><path d="M960.2,406.8v.6A3614,3614,0,0,0,0,407.4v1.3l.2,1.4a3610.2,3610.2,0,0,1,959.6,0v-.4a3622.7,3622.7,0,0,0,480.1,32,3621.2,3621.2,0,0,0,480-32v-1.5l-.2-1.4A3610.2,3610.2,0,0,1,960.2,406.8Z" fill="#2962ff"/><path d="M960.2,338.1v.5A3622.4,3622.4,0,0,0,0,338.6v1.3l.2,1.3a3618.6,3618.6,0,0,1,959.6,0v-.4a3622.7,3622.7,0,0,0,480.1,32,3621.2,3621.2,0,0,0,480-32v-1.3l-.2-1.4A3618.6,3618.6,0,0,1,960.2,338.1Z" fill="#2962ff"/></g><rect width="1920" height="1028.33" fill="url(#linear-gradient)"/></g></g></svg>